<?xml version="1.0" encoding="UTF-8" ?>
<!DOCTYPE svg PUBLIC "-//W3C//DTD SVG 1.1//EN" "http://www.w3.org/Graphics/SVG/1.1/DTD/svg11.dtd">
<svg width="1000pt" height="1000pt" viewBox="0 0 1000 1000" version="1.1" xmlns="http://www.w3.org/2000/svg">
<g id="#fdbb6fff">
<path fill="#fdbb6f" opacity="1.00" d=" M 0.00 0.00 L 1000.00 0.00 L 1000.00 1000.00 L 0.00 1000.00 L 0.00 0.00 M 442.62 188.83 C 398.52 195.46 351.45 184.39 309.08 201.23 C 292.90 208.13 282.75 224.61 268.29 234.32 C 255.10 251.17 233.32 262.51 229.03 285.03 C 214.67 302.07 202.62 320.74 187.05 337.03 C 180.68 353.48 175.36 371.10 177.01 389.00 C 174.89 448.09 176.12 507.26 178.57 566.33 C 177.56 590.09 188.76 612.46 204.57 629.46 C 214.90 639.79 221.06 653.31 230.95 664.01 C 233.25 682.95 249.06 694.71 257.05 710.95 C 269.41 727.72 285.89 740.86 299.38 756.67 C 314.03 772.93 334.15 784.15 355.50 788.61 C 382.56 790.50 409.90 789.61 436.83 792.21 C 450.32 803.37 468.36 801.40 484.30 806.71 C 534.35 806.60 586.62 813.65 634.73 797.74 C 640.86 791.70 647.97 785.66 656.86 784.73 C 670.84 785.49 675.89 768.05 689.84 768.66 C 702.94 769.98 706.77 754.83 718.15 752.22 C 736.72 748.34 746.57 729.79 760.01 718.03 C 774.01 702.43 789.71 688.44 802.95 671.98 C 816.29 663.24 816.65 646.18 822.88 632.97 C 825.87 576.56 830.91 517.46 812.77 463.21 C 799.32 455.09 803.47 438.57 794.67 428.34 C 781.48 421.28 786.76 405.03 778.52 395.47 C 764.06 386.60 770.82 367.65 758.72 357.32 C 755.04 345.88 751.52 334.26 746.85 323.18 C 734.90 306.90 720.31 293.10 706.61 278.44 C 681.52 252.15 657.24 224.86 627.94 203.11 C 598.09 189.94 564.90 192.60 533.00 190.99 C 502.69 192.14 472.86 185.11 442.62 188.83 Z" />
</g>
<g id="#c9813bff">
<path fill="#c9813b" opacity="1.00" d=" M 442.62 188.83 C 472.86 185.11 502.69 192.14 533.00 190.99 C 564.90 192.60 598.09 189.94 627.94 203.11 C 657.24 224.86 681.52 252.15 706.61 278.44 C 720.31 293.10 734.90 306.90 746.85 323.18 C 751.52 334.26 755.04 345.88 758.72 357.32 C 770.82 367.65 764.06 386.60 778.52 395.47 C 786.76 405.03 781.48 421.28 794.67 428.34 C 803.47 438.57 799.32 455.09 812.77 463.21 C 830.91 517.46 825.87 576.56 822.88 632.97 C 816.65 646.18 816.29 663.24 802.95 671.98 C 789.71 688.44 774.01 702.43 760.01 718.03 C 746.57 729.79 736.72 748.34 718.15 752.22 C 706.77 754.83 702.94 769.98 689.84 768.66 C 675.89 768.05 670.84 785.49 656.86 784.73 C 647.97 785.66 640.86 791.70 634.73 797.74 C 586.62 813.65 534.35 806.60 484.30 806.71 C 468.36 801.40 450.32 803.37 436.83 792.21 C 409.90 789.61 382.56 790.50 355.50 788.61 C 334.15 784.15 314.03 772.93 299.38 756.67 C 285.89 740.86 269.41 727.72 257.05 710.95 C 249.06 694.71 233.25 682.95 230.95 664.01 C 221.06 653.31 214.90 639.79 204.57 629.46 C 188.76 612.46 177.56 590.09 178.57 566.33 C 176.12 507.26 174.89 448.09 177.01 389.00 C 175.36 371.10 180.68 353.48 187.05 337.03 C 202.62 320.74 214.67 302.07 229.03 285.03 C 233.32 262.51 255.10 251.17 268.29 234.32 C 282.75 224.61 292.90 208.13 309.08 201.23 C 351.45 184.39 398.52 195.46 442.62 188.83 M 374.48 200.52 C 361.16 201.96 347.24 200.74 334.31 204.36 C 291.59 229.01 257.36 266.27 228.38 305.34 C 226.92 325.96 206.82 337.23 198.98 354.99 C 181.53 379.21 188.65 411.03 185.46 438.77 C 184.02 479.71 185.30 520.92 190.58 561.52 C 192.48 579.13 199.89 596.84 213.25 608.75 C 220.44 621.65 232.86 631.29 235.04 646.94 C 247.16 657.05 246.79 674.19 257.77 685.23 C 268.95 702.35 285.41 715.10 297.28 731.75 C 312.86 740.47 323.60 754.98 337.98 765.07 C 359.37 783.92 389.68 779.77 416.04 782.80 C 432.21 781.10 447.46 786.98 463.41 787.61 C 473.80 787.86 480.42 798.88 491.02 797.91 C 526.79 798.53 562.61 800.54 598.36 798.41 C 603.53 797.32 606.67 792.48 611.36 790.40 C 618.93 786.83 628.22 788.68 634.84 782.79 C 643.66 773.41 656.79 772.51 667.61 766.58 C 673.17 761.33 678.71 755.30 686.86 754.70 C 699.94 754.78 703.34 740.09 714.90 736.83 C 745.93 709.44 773.26 677.24 800.17 646.09 C 816.86 631.83 813.45 608.54 815.02 589.00 C 814.86 559.53 818.31 528.58 809.86 500.06 C 798.71 488.58 802.26 470.50 790.18 459.80 C 780.98 452.65 787.05 438.87 779.71 431.26 C 767.23 424.28 769.81 408.04 762.25 397.73 C 746.53 383.79 752.54 359.21 739.13 343.83 C 717.15 307.34 682.66 281.31 655.67 249.31 C 631.76 228.97 607.95 199.93 572.99 202.08 C 507.00 197.54 440.59 200.70 374.48 200.52 Z" />
</g>
<g id="#7e3307ff">
<path fill="#7e3307" opacity="1.00" d=" M 374.48 200.52 C 440.59 200.70 507.00 197.54 572.99 202.08 C 607.95 199.93 631.76 228.97 655.67 249.31 C 682.66 281.31 717.15 307.34 739.13 343.83 C 752.54 359.21 746.53 383.79 762.25 397.73 C 769.81 408.04 767.23 424.28 779.71 431.26 C 787.05 438.87 780.98 452.65 790.18 459.80 C 802.26 470.50 798.71 488.58 809.86 500.06 C 818.31 528.58 814.86 559.53 815.02 589.00 C 813.45 608.54 816.86 631.83 800.17 646.09 C 773.26 677.24 745.93 709.44 714.90 736.83 C 703.34 740.09 699.94 754.78 686.86 754.70 C 678.71 755.30 673.17 761.33 667.61 766.58 C 656.79 772.51 643.66 773.41 634.84 782.79 C 628.22 788.68 618.93 786.83 611.36 790.40 C 606.67 792.48 603.53 797.32 598.36 798.41 C 562.61 800.54 526.79 798.53 491.02 797.91 C 480.42 798.88 473.80 787.86 463.41 787.61 C 447.46 786.98 432.21 781.10 416.04 782.80 C 389.68 779.77 359.37 783.92 337.98 765.07 C 323.60 754.98 312.86 740.47 297.28 731.75 C 285.41 715.10 268.95 702.35 257.77 685.23 C 246.79 674.19 247.16 657.05 235.04 646.94 C 232.86 631.29 220.44 621.65 213.25 608.75 C 199.89 596.84 192.48 579.13 190.58 561.52 C 185.30 520.92 184.02 479.71 185.46 438.77 C 188.65 411.03 181.53 379.21 198.98 354.99 C 206.82 337.23 226.92 325.96 228.38 305.34 C 257.36 266.27 291.59 229.01 334.31 204.36 C 347.24 200.74 361.16 201.96 374.48 200.52 M 418.42 213.42 C 409.07 213.84 399.74 214.87 390.38 214.56 C 381.19 214.93 374.06 223.63 364.42 220.56 C 342.53 213.11 321.92 229.74 304.30 240.31 C 279.60 267.57 243.38 290.94 238.44 330.54 C 231.97 340.61 231.99 353.00 235.95 364.06 C 242.33 380.61 232.77 396.71 228.64 412.38 C 229.57 430.14 229.42 448.14 234.71 465.32 C 239.75 476.02 219.53 472.97 224.54 483.50 C 226.56 489.10 228.35 494.72 228.41 500.78 C 235.63 512.67 244.58 523.73 248.79 537.18 C 250.04 548.43 242.47 559.33 244.91 572.06 C 248.57 582.47 251.61 593.40 252.81 604.25 C 260.92 614.66 264.34 627.80 267.78 640.24 C 276.08 645.14 280.20 654.36 286.71 661.29 C 296.37 674.24 316.42 666.20 326.92 678.23 C 325.88 682.51 323.37 687.69 328.22 690.82 C 351.32 701.55 373.37 715.23 391.68 733.30 C 399.75 736.31 409.82 735.72 415.61 743.24 C 419.31 756.50 436.95 752.22 446.41 758.54 C 458.91 766.78 475.60 762.64 487.35 772.60 C 500.97 777.06 515.61 779.74 529.96 778.07 C 551.97 780.76 576.68 791.49 597.33 779.40 C 607.43 777.38 618.15 776.71 627.68 772.66 C 636.09 759.19 654.42 758.41 662.29 744.24 C 667.50 732.93 686.00 736.43 685.15 721.07 C 697.65 699.28 712.63 674.82 737.16 666.18 C 743.13 656.01 750.44 645.89 752.06 633.91 C 756.40 625.02 764.33 614.43 759.84 604.26 C 758.40 588.64 750.48 569.29 763.71 557.81 C 765.95 549.65 772.82 543.39 780.64 540.58 C 781.98 537.53 783.89 531.75 779.51 530.60 C 766.36 527.26 758.03 513.74 763.59 500.70 C 760.50 489.91 763.53 476.51 752.46 469.62 C 749.41 450.88 744.10 432.69 739.28 414.72 C 735.75 409.86 726.40 413.70 724.79 407.16 C 721.18 387.27 718.54 367.00 717.05 346.95 C 712.59 341.67 704.40 340.46 702.59 332.42 C 692.30 323.79 686.71 311.26 675.97 303.02 C 672.30 295.55 660.41 296.72 659.13 287.95 C 658.68 280.53 651.03 278.53 645.80 275.16 C 640.35 271.82 644.84 263.76 640.56 259.41 C 634.24 253.75 626.56 250.00 619.40 245.58 C 601.14 229.24 576.13 226.92 554.36 217.54 C 509.09 213.71 463.74 214.07 418.42 213.42 Z" />
</g>
<g id="#430e02ff">
<path fill="#430e02" opacity="1.00" d=" M 418.42 213.42 C 463.74 214.07 509.09 213.71 554.36 217.54 C 576.13 226.92 601.14 229.24 619.40 245.58 C 626.56 250.00 634.24 253.75 640.56 259.41 C 644.84 263.76 640.35 271.82 645.80 275.16 C 651.03 278.53 658.68 280.53 659.13 287.95 C 660.41 296.72 672.30 295.55 675.97 303.02 C 686.71 311.26 692.30 323.79 702.59 332.42 C 704.40 340.46 712.59 341.67 717.05 346.95 C 718.54 367.00 721.18 387.27 724.79 407.16 C 726.40 413.70 735.75 409.86 739.28 414.72 C 744.10 432.69 749.41 450.88 752.46 469.62 C 763.53 476.51 760.50 489.91 763.59 500.70 C 758.03 513.74 766.36 527.26 779.51 530.60 C 783.89 531.75 781.98 537.53 780.64 540.58 C 772.82 543.39 765.95 549.65 763.71 557.81 C 750.48 569.29 758.40 588.64 759.84 604.26 C 764.33 614.43 756.40 625.02 752.06 633.91 C 750.44 645.89 743.13 656.01 737.16 666.18 C 712.63 674.82 697.65 699.28 685.15 721.07 C 686.00 736.43 667.50 732.93 662.29 744.24 C 654.42 758.41 636.09 759.19 627.68 772.66 C 618.15 776.71 607.43 777.38 597.33 779.40 C 576.68 791.49 551.97 780.76 529.96 778.07 C 515.61 779.74 500.97 777.06 487.35 772.60 C 475.60 762.64 458.91 766.78 446.41 758.54 C 436.95 752.22 419.31 756.50 415.61 743.24 C 409.82 735.72 399.75 736.31 391.68 733.30 C 373.37 715.23 351.32 701.55 328.22 690.82 C 323.37 687.69 325.88 682.51 326.92 678.23 C 316.42 666.20 296.37 674.24 286.71 661.29 C 280.20 654.36 276.08 645.14 267.78 640.24 C 264.34 627.80 260.92 614.66 252.81 604.25 C 251.61 593.40 248.57 582.47 244.91 572.06 C 242.47 559.33 250.04 548.43 248.79 537.18 C 244.58 523.73 235.63 512.67 228.41 500.78 C 228.35 494.72 226.56 489.10 224.54 483.50 C 219.53 472.97 239.75 476.02 234.71 465.32 C 229.42 448.14 229.57 430.14 228.64 412.38 C 232.77 396.71 242.33 380.61 235.95 364.06 C 231.99 353.00 231.97 340.61 238.44 330.54 C 243.38 290.94 279.60 267.57 304.30 240.31 C 321.92 229.74 342.53 213.11 364.42 220.56 C 374.06 223.63 381.19 214.93 390.38 214.56 C 399.74 214.87 409.07 213.84 418.42 213.42 Z" />
</g>
</svg>
